<?xml version="1.0" encoding="utf-8"?>
<!DOCTYPE svg PUBLIC "-//W3C//DTD SVG 1.1//EN" "http://www.w3.org/Graphics/SVG/1.1/DTD/svg11.dtd">

<svg 
    xmlns:ev="http://www.w3.org/2001/xml-events" 
    xmlns="http://www.w3.org/2000/svg" 
    xmlns:xlink="http://www.w3.org/1999/xlink" 
    version="1.1" id="2441697909" x="0px" y="0px" 
    width="100%" height="100%" 
    viewBox="0 0 150 150" 
    enable-background="new 0 0 150 150" 
    xml:space="preserve" preserveAspectRatio="none" 
    class="element svg-element"
>
<path fill="#09A1EF" d="M9,10h132v130H9V10z" style="fill: rgb(255, 255, 255);"></path>
<path fill="#08A1EF" d="M150,140v10h-10c0-2.761-2.239-5-5-5s-5,2.239-5,5h-10c0-2.761-2.239-5-5-5s-5,2.239-5,5h-10  c0-2.761-2.239-5-5-5s-5,2.239-5,5H80c0-2.761-2.239-5-5-5s-5,2.239-5,5H60c0-2.761-2.239-5-5-5s-5,2.239-5,5H40  c0-2.761-2.239-5-5-5s-5,2.239-5,5H20c0-2.761-2.239-5-5-5s-5,2.239-5,5H0v-10c2.761,0,5-2.239,5-5s-2.239-5-5-5v-10  c2.761,0,5-2.239,5-5s-2.239-5-5-5v-10c2.761,0,5-2.239,5-5s-2.239-5-5-5V80c2.761,0,5-2.239,5-5s-2.239-5-5-5V60  c2.761,0,5-2.239,5-5s-2.239-5-5-5V40c2.761,0,5-2.239,5-5s-2.239-5-5-5V20c2.761,0,5-2.239,5-5s-2.239-5-5-5V0h10  c0,2.761,2.239,5,5,5s5-2.239,5-5h10c0,2.761,2.239,5,5,5s5-2.239,5-5h10c0,2.761,2.239,5,5,5s5-2.239,5-5h10c0,2.761,2.239,5,5,5  s5-2.239,5-5h10c0,2.761,2.239,5,5,5s5-2.239,5-5h10c0,2.761,2.239,5,5,5s5-2.239,5-5h10c0,2.761,2.239,5,5,5s5-2.239,5-5h10v10  c-2.761,0-5,2.239-5,5s2.239,5,5,5v10c-2.761,0-5,2.239-5,5s2.239,5,5,5v10c-2.761,0-5,2.239-5,5s2.239,5,5,5v10  c-2.761,0-5,2.239-5,5s2.239,5,5,5v10c-2.761,0-5,2.239-5,5s2.239,5,5,5v10c-2.761,0-5,2.239-5,5s2.239,5,5,5v10  c-2.761,0-5,2.239-5,5S147.239,140,150,140z M140,10H10v130h130V10z" style="fill: rgb(255, 255, 255);"></path>
</svg>