<?xml version="1.0" encoding="utf-8"?>
<!DOCTYPE svg PUBLIC "-//W3C//DTD SVG 1.1//EN" "http://www.w3.org/Graphics/SVG/1.1/DTD/svg11.dtd">

<svg 
    xmlns="http://www.w3.org/2000/svg" 
    xmlns:xlink="http://www.w3.org/1999/xlink" 
    version="1.1" id="4760660241" x="0px" y="0px" 
    width="100%" height="100%" 
    viewBox="0 0 75.656 117.16" 
    enable-background="new 0 0 75.656 117.16" 
    xml:space="preserve" preserveAspectRatio="none" 
    class="element svg-element"
>
<path id="eqxiu.com_2_" fill="#FFFFFF" d="M69.307,109.625c0,0-18.474,5.125-33.028,4.522c-0.14-0.151-27.85,6.029-33.448-6.029  c0,0-4.198-5.577-0.56-16.28c-0.14,0,2.659-5.539,0.14-25.38c0-0.095-1.12-18.183,0-26.096c0,0.075-2.52-28.264,1.539-32.032  c0.28-0.15,5.234-12.511,31.097-3.919C35.3,4.712,43.836,5.616,55.732,2.3c0.28,0,14.835-6.481,18.333,22.611  c0,0,2.52,22.007-1.398,39.191c-0.141,0.15-3.359,14.471-0.7,28.941C71.827,93.194,75.899,108.04,69.307,109.625z" style="fill: rgb(255, 255, 255);"></path>
<path id="eqxiu.com_1_" fill="#595A5A" d="M2.18,74.785c-0.013-0.171-0.026-0.342-0.04-0.515l0.193-0.016  c0.014,0.173,0.027,0.345,0.04,0.516L2.18,74.785z M1.476,93.843l-0.19-0.035c-0.032,0.174-0.063,0.343-0.095,0.508l0.19,0.036  C1.413,94.187,1.444,94.017,1.476,93.843z M1.856,66.507L1.83,65.991L1.637,66l0.026,0.517L1.856,66.507z M1.805,65.474  l-0.025-0.517l-0.194,0.01l0.025,0.517L1.805,65.474z M1.754,64.441L1.73,63.924l-0.193,0.01l0.024,0.517L1.754,64.441z   M1.339,52.041l-0.007-0.517l-0.194,0.002l0.007,0.517L1.339,52.041z M3.349,7.452L3.181,7.356C3.095,7.506,3.012,7.66,2.932,7.813  l0.172,0.09C3.182,7.752,3.265,7.6,3.349,7.452z M1.356,53.074l-0.009-0.517l-0.194,0.003l0.01,0.517L1.356,53.074z M1.378,54.108  l-0.011-0.517l-0.194,0.004l0.011,0.517L1.378,54.108z M2.29,73.739c-0.015-0.171-0.03-0.343-0.046-0.515l-0.193,0.018  c0.016,0.172,0.032,0.344,0.046,0.514L2.29,73.739z M2.088,89.749l-0.192-0.022c-0.021,0.173-0.041,0.344-0.062,0.512l0.192,0.024  C2.047,90.093,2.068,89.921,2.088,89.749z M1.744,68.067l0.028,0.517l0.194-0.011l-0.028-0.517L1.744,68.067z M1.959,90.776  L1.768,90.75c-0.023,0.174-0.046,0.344-0.07,0.512l0.192,0.027C1.913,91.12,1.937,90.949,1.959,90.776z M2.202,88.719L2.009,88.7  c-0.018,0.173-0.036,0.344-0.055,0.513l0.193,0.021C2.166,89.065,2.185,88.893,2.202,88.719z M1.317,49.973  c-0.001-0.173-0.002-0.345-0.002-0.517l-0.194,0c0,0.172,0.001,0.344,0.002,0.518L1.317,49.973z M1.919,71.167l0.031,0.518  l0.193-0.012l-0.031-0.517L1.919,71.167z M2.207,72.708l-0.032-0.518l-0.193,0.012l0.032,0.518L2.207,72.708z M1.91,67.541  l-0.027-0.517l-0.193,0.01l0.027,0.517L1.91,67.541z M1.21,55.148l0.194-0.005l-0.013-0.519l-0.194,0.005L1.21,55.148z   M1.859,70.134l0.03,0.517l0.193-0.012l-0.03-0.517L1.859,70.134z M1.654,92.824l-0.191-0.032c-0.029,0.173-0.058,0.343-0.086,0.509  l0.191,0.033C1.597,93.167,1.625,92.997,1.654,92.824z M1.66,62.375l-0.022-0.517l-0.194,0.008l0.022,0.517L1.66,62.375z   M1.616,61.342l-0.021-0.517l-0.193,0.008l0.021,0.517L1.616,61.342z M1.707,63.408l-0.023-0.517L1.489,62.9l0.023,0.517  L1.707,63.408z M1.455,40.166l0.019,0.52l0.193-0.007L1.649,40.16L1.455,40.166z M1.575,60.309l-0.02-0.516L1.361,59.8l0.02,0.517  L1.575,60.309z M1.498,58.242L1.48,57.727l-0.193,0.007l0.018,0.515L1.498,58.242z M1.464,57.212l-0.016-0.516l-0.194,0.006  l0.016,0.516L1.464,57.212z M1.432,56.179l-0.015-0.517l-0.193,0.005l0.015,0.518L1.432,56.179z M1.535,59.275l-0.019-0.517  l-0.194,0.007l0.019,0.517L1.535,59.275z M1.42,39.13l0.018,0.518l0.193-0.007l-0.018-0.518L1.42,39.13z M1.29,34.99l0.015,0.518  l0.194-0.006l-0.016-0.517L1.29,34.99z M1.231,32.922l0.015,0.517l0.193-0.005l-0.014-0.517L1.231,32.922z M1.177,30.854  l0.013,0.517l0.194-0.005l-0.013-0.517L1.177,30.854z M1.204,31.888l0.014,0.517l0.193-0.005l-0.014-0.517L1.204,31.888z   M1.127,28.785l0.012,0.517l0.194-0.004L1.321,28.78L1.127,28.785z M1.386,38.094l0.017,0.518l0.193-0.006L1.58,38.088L1.386,38.094  z M1.151,29.819l0.013,0.518l0.193-0.005l-0.012-0.517L1.151,29.819z M1.26,33.956l0.015,0.517l0.193-0.005l-0.015-0.517  L1.26,33.956z M1.321,36.025l0.016,0.518l0.193-0.006l-0.016-0.517L1.321,36.025z M1.353,37.06l0.016,0.518l0.194-0.006  l-0.017-0.518L1.353,37.06z M1.313,48.919c0-0.166,0-0.331,0.001-0.495l-0.194-0.001c0,0.165,0,0.33,0,0.496v0.021h0.193V48.919z   M1.801,69.1l0.029,0.518l0.193-0.012l-0.029-0.517L1.801,69.1z M0.194,100.908L0,100.909c0.001,0.175,0.004,0.348,0.009,0.519  l0.194-0.005C0.198,101.252,0.195,101.081,0.194,100.908z M0.209,99.878l-0.193-0.007c-0.006,0.174-0.011,0.347-0.013,0.519  l0.194,0.002C0.199,100.222,0.203,100.051,0.209,99.878z M0.223,101.936l-0.193,0.01c0.009,0.174,0.02,0.347,0.032,0.518  l0.193-0.015C0.242,102.28,0.231,102.109,0.223,101.936z M0.299,102.961l-0.193,0.019c0.017,0.174,0.037,0.346,0.058,0.516  l0.192-0.024C0.335,103.303,0.316,103.133,0.299,102.961z M1.28,94.86l-0.19-0.038c-0.035,0.174-0.07,0.343-0.105,0.505l0.189,0.041  C1.21,95.204,1.245,95.035,1.28,94.86z M0.428,103.98l-0.192,0.03c0.027,0.172,0.056,0.343,0.086,0.512l0.19-0.035  C0.483,104.32,0.454,104.151,0.428,103.98z M0.264,98.849l-0.193-0.014c-0.012,0.174-0.023,0.347-0.032,0.518l0.193,0.011  C0.241,99.194,0.252,99.022,0.264,98.849z M1.064,95.874l-0.189-0.043c-0.039,0.176-0.078,0.343-0.116,0.503l0.189,0.045  C0.986,96.217,1.025,96.049,1.064,95.874z M0.827,96.882l-0.188-0.047c-0.044,0.179-0.087,0.345-0.128,0.499l0.187,0.05  C0.739,97.229,0.782,97.062,0.827,96.882z M0.561,97.884l-0.187-0.053c-0.055,0.195-0.104,0.36-0.146,0.494l0.185,0.058  C0.456,98.249,0.505,98.082,0.561,97.884z M0.613,104.99l-0.189,0.041c0.037,0.171,0.076,0.34,0.117,0.506l0.188-0.046  C0.688,105.326,0.649,105.159,0.613,104.99z M0.859,105.987l-0.187,0.052c0.047,0.169,0.097,0.334,0.149,0.498l0.185-0.059  C0.956,106.316,0.906,106.153,0.859,105.987z M2.192,86.643c-0.013,0.174-0.026,0.345-0.04,0.515l0.193,0.017  c0.014-0.171,0.027-0.343,0.041-0.517L2.192,86.643z M2.355,109.825c0.094,0.146,0.192,0.292,0.291,0.432l0.158-0.111  c-0.097-0.138-0.193-0.281-0.286-0.425L2.355,109.825z M2.482,8.751L2.66,8.829C2.728,8.673,2.8,8.516,2.874,8.362L2.699,8.278  C2.624,8.435,2.551,8.594,2.482,8.751z M2.061,88.186l0.193,0.019c0.017-0.17,0.032-0.342,0.048-0.516l-0.193-0.017  C2.093,87.845,2.077,88.017,2.061,88.186z M1.828,108.928c0.082,0.153,0.168,0.307,0.254,0.453l0.167-0.098  c-0.085-0.146-0.169-0.296-0.251-0.446L1.828,108.928z M0.988,107.029c0.058,0.163,0.12,0.326,0.183,0.486l0.18-0.072  c-0.063-0.157-0.124-0.318-0.181-0.479L0.988,107.029z M1.373,107.995c0.07,0.158,0.144,0.316,0.219,0.471l0.174-0.085  c-0.074-0.151-0.147-0.309-0.216-0.465L1.373,107.995z M1.545,92.282l0.191,0.03c0.026-0.167,0.052-0.338,0.078-0.512l-0.191-0.028  C1.598,91.945,1.571,92.115,1.545,92.282z M2.332,77.361c0.007,0.172,0.014,0.345,0.021,0.516l0.194-0.008  c-0.006-0.171-0.013-0.344-0.021-0.517L2.332,77.361z M2.394,79.423c0.003,0.173,0.006,0.345,0.008,0.516l0.193-0.002  c-0.002-0.172-0.004-0.344-0.007-0.518L2.394,79.423z M2.601,80.845c0-0.13,0-0.26-0.001-0.392l-0.194,0.001  c0,0.131,0.001,0.261,0.001,0.391v0.126h0.194V80.845z M2.598,81.489l-0.193-0.002c-0.001,0.174-0.003,0.346-0.006,0.517  l0.194,0.003C2.595,81.834,2.597,81.663,2.598,81.489z M2.444,75.802c-0.011-0.171-0.022-0.343-0.034-0.516l-0.193,0.013  c0.012,0.173,0.023,0.345,0.034,0.516L2.444,75.802z M2.37,78.392c0.005,0.173,0.01,0.345,0.014,0.516l0.194-0.005  c-0.004-0.172-0.009-0.344-0.014-0.517L2.37,78.392z M2.554,83.558l-0.193-0.007c-0.006,0.173-0.013,0.345-0.02,0.516l0.193,0.008  C2.542,83.904,2.548,83.732,2.554,83.558z M2.512,84.592l-0.193-0.01c-0.008,0.174-0.017,0.346-0.026,0.516l0.194,0.011  C2.495,84.938,2.504,84.766,2.512,84.592z M2.583,82.523l-0.194-0.004c-0.004,0.174-0.008,0.346-0.013,0.517l0.194,0.005  C2.575,82.87,2.579,82.697,2.583,82.523z M2.456,85.625l-0.193-0.012c-0.011,0.173-0.022,0.345-0.034,0.515l0.193,0.014  C2.434,85.971,2.445,85.799,2.456,85.625z M2.281,76.33c0.009,0.173,0.019,0.345,0.027,0.516l0.193-0.01  c-0.008-0.171-0.017-0.344-0.027-0.517L2.281,76.33z M1.279,15.345l-0.193-0.011c-0.009,0.162-0.017,0.335-0.024,0.518l0.194,0.007  C1.262,15.678,1.27,15.506,1.279,15.345z M2.462,9.303l-0.18-0.071c-0.064,0.16-0.125,0.324-0.185,0.487L2.28,9.784  C2.337,9.626,2.397,9.465,2.462,9.303z M1.213,17.408L1.02,17.405c-0.003,0.168-0.005,0.34-0.007,0.517l0.194,0.002  C1.208,17.748,1.211,17.576,1.213,17.408z M1.202,18.44l-0.194-0.001c-0.001,0.169-0.002,0.342-0.003,0.517l0.194,0.001  C1.199,18.782,1.2,18.609,1.202,18.44z M1.197,19.99l0-0.269l0-0.248l-0.194,0l0,0.248l0,0.269H1.197z M1.237,16.376L1.043,16.37  c-0.005,0.166-0.009,0.339-0.013,0.517l0.194,0.004C1.228,16.713,1.232,16.542,1.237,16.376z M1.608,12.265l-0.19-0.036  c-0.032,0.173-0.062,0.347-0.087,0.515l0.191,0.029C1.547,12.607,1.576,12.436,1.608,12.265z M1.829,11.259l-0.188-0.047  c-0.044,0.174-0.084,0.344-0.12,0.507L1.71,11.76C1.746,11.599,1.786,11.432,1.829,11.259z M1.363,14.322L1.17,14.297  c-0.019,0.146-0.036,0.321-0.051,0.519l0.193,0.015C1.328,14.636,1.344,14.465,1.363,14.322z M1.454,13.284l-0.193-0.022  c-0.021,0.181-0.037,0.357-0.049,0.522l0.193,0.014C1.417,13.635,1.434,13.462,1.454,13.284z M1.325,51.007L1.32,50.49l-0.194,0.001  l0.005,0.518L1.325,51.007z M71.9,75.859l-0.193-0.012c-0.011,0.171-0.021,0.343-0.031,0.517l0.194,0.011  C71.879,76.202,71.89,76.03,71.9,75.859z M73.59,99.467c0.019,0.168,0.036,0.339,0.053,0.513l0.193-0.019  c-0.017-0.175-0.035-0.347-0.054-0.516L73.59,99.467z M73.951,102.034c-0.002-0.174-0.007-0.347-0.013-0.519l-0.193,0.007  c0.006,0.17,0.01,0.342,0.012,0.515L73.951,102.034z M71.622,77.397l0.193,0.009c0.008-0.173,0.017-0.345,0.025-0.516l-0.193-0.01  C71.638,77.051,71.629,77.223,71.622,77.397z M73.458,98.445c0.023,0.166,0.047,0.336,0.069,0.511l0.192-0.025  c-0.022-0.175-0.046-0.347-0.07-0.514L73.458,98.445z M74.315,21.917l0.192-0.027c-0.024-0.173-0.049-0.344-0.074-0.512  l-0.191,0.028C74.266,21.574,74.291,21.744,74.315,21.917z M73.614,17.851l0.189-0.04c-0.036-0.173-0.072-0.342-0.108-0.506  l-0.189,0.042C73.542,17.511,73.578,17.679,73.614,17.851z M74.165,20.896l0.191-0.03c-0.026-0.173-0.054-0.344-0.081-0.511  l-0.191,0.031C74.111,20.554,74.138,20.724,74.165,20.896z M73.999,19.878l0.191-0.033c-0.03-0.173-0.06-0.343-0.09-0.51  l-0.19,0.034C73.939,19.536,73.969,19.705,73.999,19.878z M73.816,18.863l0.19-0.036c-0.033-0.173-0.066-0.343-0.1-0.508  l-0.189,0.038C73.75,18.521,73.783,18.69,73.816,18.863z M73.687,100.494c0.013,0.169,0.024,0.341,0.034,0.514l0.193-0.011  c-0.01-0.175-0.021-0.347-0.034-0.518L73.687,100.494z M71.733,83.596c-0.004-0.173-0.007-0.345-0.01-0.516l-0.194,0.003  c0.003,0.172,0.007,0.344,0.011,0.517L71.733,83.596z M71.807,85.657c-0.008-0.173-0.017-0.344-0.023-0.516L71.59,85.15  c0.007,0.172,0.015,0.344,0.023,0.516L71.807,85.657z M71.763,84.626c-0.006-0.172-0.012-0.344-0.017-0.516l-0.194,0.006  c0.006,0.172,0.011,0.344,0.018,0.517L71.763,84.626z M71.579,78.431l0.193,0.007c0.006-0.173,0.013-0.345,0.021-0.517l-0.194-0.008  C71.591,78.085,71.584,78.257,71.579,78.431z M71.94,87.715c-0.014-0.172-0.026-0.344-0.039-0.515l-0.193,0.014  c0.013,0.172,0.025,0.344,0.039,0.516L71.94,87.715z M71.866,86.686c-0.011-0.172-0.021-0.344-0.03-0.515l-0.194,0.011  c0.01,0.172,0.021,0.344,0.031,0.517L71.866,86.686z M71.716,82.565c-0.002-0.172-0.003-0.344-0.004-0.516l-0.194,0.001  c0.001,0.172,0.003,0.344,0.004,0.517L71.716,82.565z M71.546,79.465l0.193,0.005c0.005-0.173,0.01-0.345,0.015-0.517l-0.193-0.006  C71.555,79.12,71.55,79.292,71.546,79.465z M71.526,80.5l0.194,0.003c0.002-0.173,0.005-0.345,0.009-0.516l-0.194-0.004  C71.532,80.154,71.529,80.327,71.526,80.5z M71.518,81.535h0.193c0.001-0.173,0.002-0.345,0.003-0.516l-0.193-0.002  C71.519,81.189,71.518,81.362,71.518,81.535z M75.125,34.263l0.193-0.002c-0.002-0.184-0.003-0.357-0.003-0.516l-0.194,0  C75.123,33.905,75.124,34.078,75.125,34.263z M75.25,38.4l0.193-0.009c-0.008-0.173-0.017-0.346-0.023-0.516l-0.194,0.009  C75.233,38.054,75.241,38.227,75.25,38.4z M75.167,36.333l0.194-0.006c-0.006-0.176-0.011-0.348-0.015-0.516l-0.194,0.005  C75.158,35.984,75.163,36.156,75.167,36.333z M75.204,37.367l0.194-0.007c-0.007-0.175-0.014-0.347-0.02-0.516l-0.193,0.006  C75.191,37.02,75.197,37.192,75.204,37.367z M75.33,32.716l-0.193-0.009c-0.006,0.124-0.01,0.299-0.013,0.521l0.194,0.002  C75.32,33.01,75.324,32.837,75.33,32.716z M71.777,74.815c-0.012,0.17-0.024,0.343-0.036,0.516l0.193,0.014  c0.012-0.173,0.024-0.345,0.036-0.516L71.777,74.815z M75.462,42.523l0.193-0.013c0-0.189-0.001-0.358-0.002-0.505l-0.193,0.001  C75.461,42.153,75.462,42.321,75.462,42.523z M75.334,35.294c-0.003-0.178-0.007-0.351-0.009-0.516l-0.194,0.003  c0.003,0.166,0.006,0.338,0.01,0.518L75.334,35.294z M75.305,39.434l0.193-0.012c-0.01-0.172-0.02-0.344-0.029-0.516l-0.193,0.011  C75.286,39.089,75.295,39.261,75.305,39.434z M75.439,41.349l0.007,0.089h0.002c0.001,0.015,0.002,0.034,0.003,0.056l0.193-0.007  c-0.002-0.065-0.004-0.118-0.013-0.157c-0.01-0.12-0.019-0.241-0.028-0.361l-0.193,0.015C75.419,41.105,75.429,41.227,75.439,41.349  z M75.372,40.467l0.193-0.014c-0.012-0.172-0.023-0.344-0.034-0.515l-0.193,0.012C75.348,40.122,75.36,40.294,75.372,40.467z   M75.009,29.107l0.193-0.011c-0.011-0.174-0.021-0.346-0.032-0.516l-0.193,0.012C74.988,28.763,74.999,28.934,75.009,29.107z   M75.148,32.202l0.194-0.006c-0.006-0.173-0.012-0.346-0.018-0.517l-0.194,0.007C75.137,31.856,75.143,32.029,75.148,32.202z   M74.781,26.019l0.193-0.018c-0.016-0.173-0.031-0.345-0.048-0.515l-0.192,0.019C74.75,25.674,74.766,25.846,74.781,26.019z   M74.868,27.048l0.193-0.016c-0.014-0.173-0.028-0.345-0.042-0.515l-0.193,0.016C74.84,26.703,74.854,26.875,74.868,27.048z   M74.574,23.965l0.192-0.021c-0.02-0.174-0.04-0.345-0.06-0.514l-0.192,0.023C74.534,23.621,74.554,23.792,74.574,23.965z   M74.683,24.991l0.193-0.02c-0.018-0.173-0.036-0.345-0.054-0.514l-0.192,0.021C74.648,24.647,74.666,24.818,74.683,24.991z   M75.111,31.17l0.193-0.008c-0.007-0.174-0.014-0.346-0.021-0.517l-0.193,0.009C75.096,30.825,75.104,30.997,75.111,31.17z   M75.065,30.139l0.193-0.01c-0.009-0.173-0.018-0.346-0.027-0.517l-0.193,0.011C75.047,29.793,75.056,29.965,75.065,30.139z   M74.944,28.077l0.193-0.013c-0.013-0.174-0.024-0.346-0.037-0.516l-0.193,0.015C74.919,27.732,74.931,27.904,74.944,28.077z   M74.451,22.94l0.192-0.024c-0.021-0.173-0.044-0.344-0.066-0.513l-0.191,0.025C74.407,22.597,74.429,22.767,74.451,22.94z   M72.243,71.742l-0.193-0.02c-0.017,0.17-0.034,0.342-0.052,0.515l0.193,0.02C72.208,72.083,72.225,71.912,72.243,71.742z   M5.156,4.969L5.014,4.837c-0.117,0.127-0.233,0.258-0.345,0.39l0.147,0.125C4.927,5.223,5.041,5.094,5.156,4.969z M1.208,22.058  l-0.004-0.517L1.01,21.542l0.004,0.518L1.208,22.058z M1.219,23.092l-0.006-0.517L1.02,22.577l0.006,0.518L1.219,23.092z   M1.004,20.508l0.002,0.517l0.194-0.001l-0.002-0.517L1.004,20.508z M70,7.119c-0.092-0.15-0.184-0.296-0.277-0.439L69.56,6.785  c0.093,0.141,0.184,0.286,0.273,0.434L70,7.119z M70.968,8.954c-0.072-0.159-0.146-0.315-0.222-0.469L70.573,8.57  c0.074,0.152,0.147,0.307,0.22,0.464L70.968,8.954z M72.047,12.575l0.002,0.017l0.016,0.018c0.009,0.013,0.054,0.095,0.14,0.298  l0.178-0.075c-0.04-0.097-0.109-0.254-0.151-0.323c-0.013-0.047-0.025-0.094-0.039-0.141l-0.187,0.051  C72.02,12.472,72.034,12.523,72.047,12.575z M71.865,11.925l0.186-0.055c-0.05-0.168-0.101-0.333-0.152-0.496l-0.185,0.059  C71.764,11.595,71.815,11.759,71.865,11.925z M71.735,10.882c-0.058-0.165-0.115-0.328-0.174-0.488l-0.183,0.067  c0.06,0.159,0.116,0.32,0.173,0.484L71.735,10.882z M1.233,24.126l-0.007-0.517l-0.194,0.002l0.007,0.518L1.233,24.126z   M72.747,13.807c-0.062-0.184-0.12-0.347-0.173-0.49l-0.182,0.067c0.053,0.142,0.109,0.303,0.171,0.484L72.747,13.807z   M1.395,44.294l-0.193-0.008c-0.007,0.169-0.014,0.342-0.02,0.517l0.194,0.007C1.382,44.635,1.388,44.463,1.395,44.294z   M1.359,45.326L1.166,45.32c-0.005,0.17-0.009,0.343-0.013,0.518l0.193,0.004C1.351,45.667,1.355,45.496,1.359,45.326z   M1.612,41.208l-0.192-0.021c-0.019,0.166-0.036,0.338-0.053,0.516l0.193,0.018C1.576,41.543,1.594,41.373,1.612,41.208z   M1.284,42.735l0.193,0.013c0.012-0.175,0.024-0.347,0.038-0.514l-0.193-0.016C1.309,42.386,1.296,42.559,1.284,42.735z   M1.123,47.906l0.194,0.001c0.001-0.173,0.002-0.346,0.004-0.517l-0.194-0.002C1.125,47.56,1.124,47.732,1.123,47.906z M1.31,28.264  l-0.011-0.517l-0.194,0.004l0.011,0.517L1.31,28.264z M1.268,26.194l-0.009-0.517l-0.194,0.003l0.009,0.517L1.268,26.194z   M1.288,27.23l-0.01-0.519l-0.194,0.004l0.01,0.519L1.288,27.23z M1.335,46.358l-0.194-0.003c-0.003,0.171-0.006,0.343-0.008,0.517  l0.194,0.003C1.33,46.701,1.333,46.528,1.335,46.358z M1.25,25.161l-0.008-0.517l-0.194,0.003l0.008,0.517L1.25,25.161z   M73.315,64.068c0.057-0.323,0.076-0.436,0.078-0.479l0.006-0.016l-0.006-0.096h-0.097v0.061l-0.081-0.027l-0.056,0.161h0.027  c-0.015,0.083-0.037,0.213-0.063,0.362L73.315,64.068z M72.556,92.834c-0.027-0.17-0.055-0.34-0.082-0.51l-0.191,0.03  c0.027,0.171,0.055,0.341,0.083,0.511L72.556,92.834z M72.413,68.638c-0.022,0.168-0.045,0.339-0.067,0.514l0.192,0.024  c0.022-0.174,0.045-0.345,0.066-0.513L72.413,68.638z M72.206,91.843l0.191-0.028c-0.024-0.17-0.049-0.341-0.072-0.511l-0.191,0.026  C72.157,91.501,72.181,91.672,72.206,91.843z M72.745,67.64l-0.192-0.027c-0.023,0.167-0.047,0.338-0.071,0.513l0.192,0.026  C72.697,67.977,72.721,67.807,72.745,67.64z M72.051,73.799l-0.193-0.017c-0.014,0.171-0.028,0.343-0.042,0.516l0.193,0.016  C72.023,74.141,72.037,73.969,72.051,73.799z M72.949,65.055l0.19,0.032c0.031-0.187,0.061-0.356,0.087-0.51l-0.191-0.033  C73.008,64.698,72.979,64.869,72.949,65.055z M1.225,43.769l0.193,0.01c0.009-0.175,0.018-0.347,0.027-0.516l-0.193-0.011  C1.242,43.421,1.233,43.593,1.225,43.769z M72.142,72.77l-0.193-0.018c-0.016,0.17-0.031,0.342-0.047,0.515l0.193,0.018  C72.111,73.111,72.126,72.94,72.142,72.77z M72.474,69.689l-0.192-0.023c-0.021,0.169-0.041,0.34-0.062,0.514l0.193,0.022  C72.433,70.029,72.454,69.857,72.474,69.689z M72.353,70.715l-0.192-0.022c-0.019,0.17-0.038,0.341-0.057,0.515l0.192,0.021  C72.315,71.055,72.334,70.884,72.353,70.715z M73.571,97.904c-0.028-0.178-0.058-0.348-0.087-0.511l-0.19,0.033  c0.028,0.162,0.058,0.332,0.086,0.509L73.571,97.904z M72.872,14.851l0.186-0.055c-0.052-0.176-0.102-0.341-0.15-0.496l-0.185,0.058  C72.77,14.512,72.82,14.676,72.872,14.851z M72.782,66.077l0.191,0.03c0.028-0.179,0.056-0.349,0.082-0.51l-0.191-0.031  C72.837,65.728,72.81,65.898,72.782,66.077z M73.391,16.844L73.58,16.8c-0.04-0.173-0.08-0.341-0.12-0.503l-0.188,0.046  C73.311,16.504,73.351,16.672,73.391,16.844z M73.145,15.844l0.188-0.049c-0.045-0.174-0.09-0.341-0.134-0.5l-0.187,0.051  C73.055,15.504,73.1,15.67,73.145,15.844z M73.374,63.021l0.186,0.057c0.05-0.162,0.099-0.328,0.146-0.498l-0.187-0.052  C73.472,62.696,73.423,62.86,73.374,63.021z M72.745,94.903l0.19-0.04c-0.035-0.168-0.069-0.337-0.103-0.506l-0.19,0.038  C72.675,94.564,72.709,94.734,72.745,94.903z M73.389,96.883c-0.036-0.184-0.071-0.354-0.104-0.509l-0.189,0.04  c0.033,0.154,0.067,0.323,0.104,0.506L73.389,96.883z M72.626,67.101l0.191,0.028c0.026-0.177,0.052-0.347,0.077-0.512l-0.191-0.028  C72.678,66.753,72.653,66.924,72.626,67.101z M73.171,95.868c-0.068-0.293-0.116-0.469-0.131-0.511l-0.184,0.062  c0.011,0.031,0.057,0.199,0.126,0.493L73.171,95.868z M2.114,10.271l-0.185-0.06c-0.055,0.169-0.105,0.335-0.152,0.498l0.187,0.053  C2.01,10.602,2.06,10.438,2.114,10.271z M60.385,112.438l0.038,0.19l0.507-0.104l-0.039-0.189L60.385,112.438z M59.856,0.667  c-0.174-0.019-0.347-0.034-0.518-0.047l-0.015,0.193c0.169,0.013,0.34,0.028,0.512,0.046L59.856,0.667z M58.357,112.838l0.036,0.19  l0.508-0.098l-0.037-0.19L58.357,112.838z M59.372,112.641l0.037,0.19c0.171-0.034,0.34-0.067,0.508-0.102l-0.038-0.189  C59.71,112.574,59.542,112.608,59.372,112.641z M60.886,0.812c-0.17-0.03-0.343-0.057-0.514-0.081l-0.027,0.192  c0.169,0.023,0.34,0.051,0.507,0.08L60.886,0.812z M58.819,0.589c-0.175-0.007-0.349-0.012-0.52-0.014l-0.002,0.194  c0.169,0.002,0.34,0.007,0.514,0.014L58.819,0.589z M56.742,0.624c-0.178,0.013-0.351,0.029-0.518,0.046l0.02,0.193  c0.166-0.017,0.337-0.032,0.513-0.045L56.742,0.624z M56.325,113.218l0.034,0.191c0.171-0.031,0.34-0.062,0.509-0.094l-0.035-0.19  C56.665,113.157,56.495,113.188,56.325,113.218z M57.78,0.576c-0.177,0.003-0.35,0.009-0.52,0.017l0.009,0.193  c0.168-0.008,0.34-0.013,0.514-0.016L57.78,0.576z M57.341,113.032l0.035,0.19c0.171-0.032,0.34-0.064,0.509-0.096l-0.036-0.19  C57.681,112.967,57.511,113,57.341,113.032z M65.717,2.654c-0.146-0.093-0.295-0.184-0.444-0.27l-0.098,0.167  c0.147,0.085,0.295,0.175,0.438,0.266L65.717,2.654z M64.817,2.133c-0.152-0.08-0.31-0.158-0.466-0.232l-0.083,0.175  c0.154,0.073,0.309,0.15,0.459,0.229L64.817,2.133z M61.904,1.028c-0.167-0.042-0.338-0.082-0.507-0.117l-0.041,0.189  c0.168,0.035,0.336,0.074,0.5,0.116L61.904,1.028z M64.43,111.577l0.042,0.188c0.174-0.038,0.342-0.076,0.506-0.113l-0.043-0.188  C64.772,111.5,64.603,111.538,64.43,111.577z M55.307,113.4l0.033,0.19c0.171-0.029,0.341-0.06,0.51-0.09l-0.034-0.19  C55.647,113.34,55.477,113.371,55.307,113.4z M65.44,111.348l0.043,0.189c0.174-0.04,0.343-0.079,0.505-0.116l-0.044-0.188  C65.782,111.27,65.614,111.309,65.44,111.348z M63.42,111.799l0.041,0.189c0.172-0.038,0.341-0.075,0.506-0.111l-0.042-0.189  C63.76,111.725,63.592,111.762,63.42,111.799z M62.903,1.32c-0.163-0.054-0.33-0.106-0.497-0.155l-0.054,0.186  c0.164,0.048,0.329,0.1,0.489,0.153L62.903,1.32z M61.398,112.23l0.039,0.189c0.171-0.035,0.34-0.07,0.507-0.105l-0.04-0.189  C61.738,112.16,61.569,112.195,61.398,112.23z M63.876,1.688c-0.16-0.068-0.322-0.133-0.483-0.194l-0.068,0.182  c0.158,0.06,0.318,0.124,0.476,0.19L63.876,1.688z M62.41,112.017l0.04,0.189l0.507-0.108l-0.041-0.189L62.41,112.017z   M50.205,114.215l0.027,0.191c0.171-0.024,0.342-0.049,0.512-0.074l-0.028-0.191C50.545,114.167,50.375,114.191,50.205,114.215z   M66.572,3.249c-0.139-0.105-0.28-0.208-0.421-0.306L66.04,3.102c0.139,0.096,0.278,0.198,0.415,0.301L66.572,3.249z M55.708,0.731  c-0.179,0.023-0.351,0.048-0.514,0.075l0.03,0.191c0.162-0.026,0.332-0.051,0.509-0.074L55.708,0.731z M48.308,2.964l0.043,0.189  c0.168-0.039,0.336-0.078,0.504-0.12l-0.047-0.188C48.641,2.886,48.475,2.926,48.308,2.964z M49.183,114.357l0.026,0.192  c0.171-0.023,0.341-0.046,0.512-0.07l-0.027-0.191C49.524,114.311,49.354,114.334,49.183,114.357z M49.306,2.715l0.051,0.187  c0.166-0.045,0.333-0.093,0.499-0.142L49.8,2.574C49.636,2.623,49.471,2.67,49.306,2.715z M47.3,3.171l0.035,0.19  c0.17-0.031,0.34-0.064,0.509-0.1l-0.039-0.189C47.637,3.107,47.468,3.14,47.3,3.171z M46.102,114.737l0.021,0.192  c0.173-0.019,0.345-0.038,0.517-0.058l-0.022-0.192C46.446,114.699,46.275,114.718,46.102,114.737z M45.265,3.472l0.021,0.193  c0.171-0.019,0.342-0.04,0.514-0.062l-0.024-0.192C45.605,3.433,45.435,3.453,45.265,3.472z M47.132,114.619l0.023,0.192  c0.172-0.021,0.343-0.041,0.515-0.062l-0.023-0.192C47.475,114.578,47.304,114.598,47.132,114.619z M46.286,3.34l0.028,0.192  c0.17-0.025,0.341-0.052,0.512-0.08L46.793,3.26C46.625,3.289,46.455,3.315,46.286,3.34z M48.16,114.492l0.024,0.192  c0.171-0.021,0.342-0.044,0.513-0.066l-0.025-0.192C48.501,114.448,48.331,114.47,48.16,114.492z M53.269,113.746l0.031,0.191  c0.171-0.028,0.341-0.056,0.51-0.084l-0.031-0.191C53.609,113.69,53.439,113.717,53.269,113.746z M54.681,0.895  C54.498,0.93,54.328,0.965,54.172,1l0.042,0.189c0.153-0.034,0.321-0.069,0.503-0.104L54.681,0.895z M53.666,1.122  c-0.282,0.073-0.456,0.128-0.503,0.144l0.061,0.184c0.045-0.015,0.215-0.068,0.491-0.14L53.666,1.122z M54.288,113.576l0.033,0.191  l0.51-0.088l-0.033-0.19L54.288,113.576z M52.249,113.909l0.03,0.191c0.171-0.026,0.341-0.054,0.511-0.081l-0.031-0.191  C52.589,113.855,52.419,113.882,52.249,113.909z M50.292,2.422l0.06,0.185c0.165-0.053,0.329-0.107,0.492-0.165L50.78,2.259  C50.618,2.316,50.455,2.37,50.292,2.422z M51.227,114.066l0.028,0.191c0.171-0.025,0.342-0.052,0.512-0.078l-0.029-0.191  C51.568,114.014,51.398,114.04,51.227,114.066z M51.263,2.085l0.068,0.181c0.161-0.061,0.322-0.124,0.483-0.188l-0.073-0.18  C51.583,1.962,51.423,2.024,51.263,2.085z M52.766,1.664l-0.082-0.176c-0.155,0.072-0.312,0.143-0.468,0.211l0.077,0.178  C52.452,1.808,52.61,1.737,52.766,1.664z M74.832,54.907l0.193,0.021c0.018-0.172,0.035-0.344,0.053-0.517l-0.193-0.019  C74.868,54.563,74.85,54.735,74.832,54.907z M74.284,59.001l0.191,0.032c0.028-0.169,0.057-0.34,0.083-0.511l-0.191-0.03  C74.34,58.663,74.312,58.833,74.284,59.001z M74.589,56.958l0.192,0.025c0.022-0.17,0.044-0.342,0.065-0.514l-0.192-0.024  C74.633,56.618,74.612,56.789,74.589,56.958z M74.934,53.877l0.193,0.018c0.016-0.172,0.031-0.344,0.047-0.515l-0.193-0.017  C74.965,53.534,74.95,53.706,74.934,53.877z M74.717,55.934l0.192,0.022c0.021-0.171,0.04-0.342,0.059-0.514l-0.192-0.021  C74.757,55.592,74.737,55.763,74.717,55.934z M45.075,114.845l0.02,0.192c0.172-0.017,0.344-0.035,0.515-0.053l-0.02-0.192  C45.417,114.81,45.247,114.828,45.075,114.845z M66.448,111.116l0.044,0.188c0.179-0.042,0.347-0.081,0.505-0.119l-0.045-0.188  L66.448,111.116z M73.677,104.091l0.193,0.019c0.017-0.172,0.03-0.346,0.042-0.519l-0.193-0.013  C73.708,103.75,73.694,103.921,73.677,104.091z M73.746,103.065l0.193,0.007c0.007-0.173,0.011-0.347,0.013-0.52l-0.194-0.002  C73.755,102.722,73.751,102.893,73.746,103.065z M73.892,61.027l0.189,0.042c0.037-0.167,0.073-0.336,0.108-0.507L74,60.523  C73.965,60.693,73.929,60.861,73.892,61.027z M74.101,60.017l0.19,0.037c0.032-0.168,0.063-0.338,0.095-0.509l-0.191-0.035  C74.165,59.68,74.133,59.849,74.101,60.017z M73.653,62.03l0.188,0.049c0.042-0.165,0.084-0.333,0.125-0.504l-0.188-0.045  C73.737,61.699,73.696,61.866,73.653,62.03z M75.382,46.659l0.194,0.007c0.006-0.175,0.012-0.348,0.017-0.517L75.4,46.143  C75.394,46.312,75.389,46.484,75.382,46.659z M75.343,47.693l0.193,0.008c0.008-0.175,0.015-0.347,0.021-0.517l-0.193-0.007  C75.357,47.346,75.35,47.518,75.343,47.693z M75.415,45.626l0.194,0.005c0.005-0.177,0.009-0.349,0.013-0.518l-0.193-0.005  C75.424,45.277,75.419,45.45,75.415,45.626z M75.456,43.558l0.193,0.002c0.003-0.183,0.004-0.355,0.005-0.519l-0.193-0.001  C75.459,43.203,75.458,43.375,75.456,43.558z M75.44,44.592l0.193,0.004c0.003-0.178,0.007-0.351,0.009-0.518l-0.193-0.003  C75.446,44.241,75.443,44.414,75.44,44.592z M75.296,48.726l0.193,0.009c0.009-0.174,0.017-0.346,0.024-0.517l-0.193-0.009  C75.313,48.379,75.304,48.552,75.296,48.726z M75.178,50.789l0.193,0.013c0.011-0.173,0.021-0.345,0.032-0.517l-0.193-0.012  C75.2,50.444,75.189,50.616,75.178,50.789z M75.025,52.849l0.193,0.016c0.015-0.171,0.028-0.343,0.042-0.514l-0.193-0.015  C75.053,52.506,75.04,52.677,75.025,52.849z M75.106,51.82l0.193,0.014c0.013-0.173,0.025-0.345,0.037-0.516l-0.193-0.014  C75.131,51.476,75.119,51.648,75.106,51.82z M75.241,49.757l0.193,0.011c0.011-0.173,0.02-0.346,0.029-0.517l-0.194-0.01  C75.26,49.412,75.25,49.584,75.241,49.757z M74.446,57.981l0.191,0.028c0.025-0.17,0.05-0.341,0.074-0.513l-0.192-0.027  C74.496,57.642,74.47,57.812,74.446,57.981z M2.953,110.676c0.104,0.136,0.213,0.272,0.324,0.406l0.149-0.124  c-0.109-0.131-0.216-0.266-0.319-0.4L2.953,110.676z M68.97,5.945c0.102,0.135,0.203,0.274,0.302,0.415l0.159-0.111  c-0.101-0.142-0.203-0.284-0.306-0.42L68.97,5.945z M71.178,9.429L71,9.505c0.066,0.156,0.132,0.314,0.195,0.476l0.181-0.072  C71.311,9.746,71.245,9.586,71.178,9.429z M68.678,110.583c-0.017,0-0.017,0-0.214,0.048l0.046,0.188  c0.107-0.026,0.17-0.042,0.179-0.044c0.111-0.013,0.22-0.028,0.325-0.047l-0.032-0.191  C68.878,110.556,68.774,110.571,68.678,110.583z M70.262,7.566l-0.169,0.096c0.083,0.147,0.165,0.297,0.246,0.451l0.172-0.09  C70.429,7.867,70.346,7.715,70.262,7.566z M70.427,110.083l0.084,0.175c0.157-0.076,0.312-0.162,0.46-0.255l-0.103-0.164  C70.726,109.927,70.578,110.009,70.427,110.083z M67.456,110.876l0.045,0.188l0.505-0.122l-0.046-0.188L67.456,110.876z   M66.855,3.722c0.131,0.108,0.262,0.221,0.389,0.335l0.129-0.144c-0.128-0.116-0.261-0.23-0.394-0.34L66.855,3.722z M67.752,4.268  l-0.135,0.139c0.121,0.118,0.242,0.241,0.359,0.365l0.141-0.133C67.999,4.513,67.875,4.388,67.752,4.268z M68.804,5.419  c-0.109-0.134-0.223-0.268-0.336-0.397L68.323,5.15c0.112,0.127,0.224,0.259,0.331,0.392L68.804,5.419z M72.08,89.255l-0.192,0.02  c0.017,0.172,0.035,0.344,0.055,0.515l0.192-0.021C72.115,89.597,72.097,89.426,72.08,89.255z M72.579,108.004l0.168,0.096  c0.085-0.148,0.166-0.305,0.241-0.465l-0.176-0.083C72.739,107.708,72.661,107.86,72.579,108.004z M73.013,107.083l0.181,0.071  c0.062-0.158,0.12-0.323,0.175-0.493l-0.185-0.059C73.13,106.768,73.073,106.93,73.013,107.083z M73.328,106.112l0.188,0.05  c0.044-0.166,0.085-0.337,0.121-0.508l-0.189-0.04C73.411,105.781,73.371,105.949,73.328,106.112z M72.643,93.343l-0.19,0.033  c0.03,0.17,0.061,0.34,0.092,0.51l0.19-0.036C72.704,93.681,72.673,93.512,72.643,93.343z M72.256,90.792  c-0.021-0.17-0.043-0.341-0.062-0.512L72,90.304c0.021,0.171,0.042,0.342,0.064,0.513L72.256,90.792z M72.004,108.841l0.148,0.124  c0.11-0.133,0.217-0.274,0.316-0.42l-0.159-0.109C72.213,108.577,72.111,108.712,72.004,108.841z M71.982,88.229l-0.192,0.017  c0.015,0.171,0.03,0.343,0.046,0.515l0.193-0.019C72.012,88.571,71.997,88.4,71.982,88.229z M73.543,105.11l0.19,0.032  c0.029-0.167,0.055-0.341,0.078-0.515l-0.192-0.025C73.597,104.774,73.572,104.945,73.543,105.11z M71.282,109.547l0.12,0.152  c0.136-0.108,0.269-0.225,0.395-0.348l-0.136-0.139C71.541,109.332,71.413,109.444,71.282,109.547z M69.478,110.431l0.049,0.188  c0.17-0.044,0.339-0.097,0.501-0.156l-0.066-0.182C69.805,110.337,69.642,110.388,69.478,110.431z M14.656,116.733  c0.171,0.027,0.342,0.053,0.514,0.076l0.027-0.192c-0.171-0.023-0.341-0.049-0.511-0.075L14.656,116.733z M15.685,116.876  c0.172,0.021,0.344,0.041,0.516,0.06l0.021-0.192c-0.171-0.019-0.342-0.038-0.513-0.06L15.685,116.876z M16.204,0.252L16.19,0.059  c-0.174,0.012-0.346,0.025-0.517,0.04l0.017,0.193C15.859,0.277,16.031,0.264,16.204,0.252z M17.232,0.205l-0.005-0.194  c-0.175,0.005-0.347,0.011-0.518,0.019l0.009,0.193C16.887,0.215,17.059,0.209,17.232,0.205z M16.717,116.989  c0.172,0.016,0.344,0.03,0.516,0.044l0.016-0.193c-0.171-0.013-0.343-0.027-0.514-0.044L16.717,116.989z M14.16,0.477l-0.03-0.192  c-0.173,0.027-0.343,0.056-0.511,0.086l0.035,0.191C13.82,0.532,13.989,0.503,14.16,0.477z M18.263,0.001  C18.089,0,17.916,0,17.745,0.001l0.002,0.193c0.17-0.001,0.341-0.001,0.515,0L18.263,0.001z M15.179,0.342l-0.021-0.192  c-0.174,0.019-0.345,0.04-0.515,0.062l0.025,0.192C14.836,0.381,15.006,0.361,15.179,0.342z M12.617,116.339  c0.168,0.039,0.337,0.077,0.506,0.112l0.04-0.189c-0.168-0.035-0.336-0.072-0.503-0.111L12.617,116.339z M13.149,0.661l-0.04-0.19  c-0.171,0.036-0.34,0.073-0.506,0.112l0.044,0.188C12.812,0.733,12.979,0.696,13.149,0.661z M13.631,116.555  c0.17,0.032,0.341,0.063,0.512,0.093l0.033-0.19c-0.17-0.029-0.339-0.061-0.508-0.093L13.631,116.555z M21.366,0.176  c-0.173-0.018-0.345-0.034-0.516-0.048l-0.017,0.193c0.169,0.015,0.34,0.031,0.513,0.048L21.366,0.176z M20.853,116.965l0.001,0.194  c0.173-0.002,0.345-0.004,0.517-0.007l-0.003-0.193C21.196,116.962,21.025,116.964,20.853,116.965z M44.24,3.569l0.016,0.193  c0.171-0.014,0.344-0.028,0.517-0.045l-0.019-0.193C44.582,3.541,44.411,3.556,44.24,3.569z M23.421,0.438  c-0.172-0.026-0.343-0.051-0.513-0.075l-0.027,0.192c0.169,0.024,0.339,0.048,0.51,0.075L23.421,0.438z M17.75,117.071  c0.172,0.011,0.345,0.021,0.517,0.03l0.01-0.193c-0.171-0.01-0.343-0.02-0.514-0.03L17.75,117.071z M21.883,116.948l0.005,0.194  c0.173-0.005,0.346-0.011,0.518-0.018l-0.007-0.193C22.228,116.938,22.056,116.943,21.883,116.948z M18.783,117.125  c0.172,0.007,0.345,0.013,0.517,0.018l0.005-0.194c-0.171-0.005-0.342-0.011-0.514-0.018L18.783,117.125z M19.299,0.027  c-0.174-0.007-0.347-0.013-0.518-0.017l-0.005,0.193c0.17,0.004,0.342,0.01,0.515,0.018L19.299,0.027z M19.818,117.154  c0.173,0.003,0.346,0.005,0.518,0.006l0.001-0.194c-0.172-0.001-0.344-0.002-0.516-0.005L19.818,117.154z M20.334,0.087  c-0.174-0.013-0.346-0.024-0.517-0.034l-0.011,0.193c0.17,0.01,0.341,0.021,0.514,0.034L20.334,0.087z M10.617,115.787  c0.164,0.054,0.329,0.104,0.495,0.155l0.056-0.187c-0.165-0.049-0.328-0.1-0.491-0.153L10.617,115.787z M5.125,112.904  c0.135,0.108,0.272,0.216,0.409,0.319l0.117-0.155c-0.135-0.102-0.271-0.208-0.404-0.315L5.125,112.904z M5.374,4.462l0.137,0.137  c0.12-0.121,0.244-0.24,0.369-0.356L5.748,4.101C5.621,4.218,5.495,4.34,5.374,4.462z M6.95,3.108l0.114,0.156  c0.137-0.1,0.278-0.199,0.419-0.295L7.375,2.81C7.232,2.906,7.089,3.007,6.95,3.108z M6.83,114.092  c0.149,0.089,0.299,0.176,0.451,0.26l0.094-0.169c-0.15-0.084-0.299-0.17-0.446-0.258L6.83,114.092z M6.136,3.754l0.126,0.147  c0.129-0.11,0.262-0.22,0.396-0.326L6.537,3.423C6.401,3.531,6.266,3.642,6.136,3.754z M5.956,113.527  c0.141,0.099,0.286,0.196,0.432,0.29l0.105-0.163c-0.144-0.093-0.288-0.188-0.426-0.286L5.956,113.527z M4.344,112.219  c0.126,0.119,0.256,0.237,0.385,0.351l0.127-0.146c-0.127-0.111-0.254-0.228-0.379-0.345L4.344,112.219z M3.617,111.476  c0.116,0.128,0.235,0.255,0.356,0.379l0.139-0.136c-0.119-0.122-0.237-0.247-0.351-0.373L3.617,111.476z M3.728,6.471  c-0.096,0.143-0.19,0.29-0.282,0.438l0.165,0.102c0.09-0.146,0.184-0.291,0.278-0.432L3.728,6.471z M4.339,5.629  C4.232,5.766,4.126,5.906,4.025,6.044l0.157,0.114C4.282,6.021,4.386,5.884,4.492,5.75L4.339,5.629z M7.812,2.527l0.102,0.165  c0.143-0.089,0.292-0.177,0.44-0.263L8.258,2.261C8.107,2.347,7.957,2.437,7.812,2.527z M22.915,116.91l0.009,0.193  c0.173-0.008,0.346-0.017,0.517-0.026l-0.011-0.194C23.259,116.892,23.087,116.901,22.915,116.91z M11.165,1.188l-0.061-0.184  c-0.167,0.055-0.33,0.111-0.491,0.17l0.066,0.182C10.839,1.298,11,1.242,11.165,1.188z M9.65,1.561l0.078,0.177  c0.155-0.068,0.312-0.134,0.473-0.198l-0.072-0.18C9.966,1.425,9.807,1.492,9.65,1.561z M12.149,0.896L12.1,0.709  c-0.169,0.045-0.336,0.092-0.5,0.14l0.055,0.186C11.817,0.987,11.982,0.941,12.149,0.896z M7.74,114.598  c0.153,0.079,0.309,0.156,0.465,0.231l0.083-0.175c-0.155-0.074-0.308-0.15-0.46-0.229L7.74,114.598z M8.677,115.046  c0.158,0.07,0.317,0.139,0.478,0.204l0.074-0.179c-0.159-0.065-0.316-0.133-0.473-0.202L8.677,115.046z M11.611,116.084  c0.167,0.046,0.333,0.091,0.501,0.133l0.047-0.188c-0.167-0.042-0.333-0.086-0.498-0.132L11.611,116.084z M8.714,2.011l0.09,0.172  c0.149-0.079,0.304-0.156,0.458-0.23L9.178,1.777C9.021,1.853,8.865,1.931,8.714,2.011z M9.637,115.442  c0.162,0.062,0.324,0.121,0.488,0.178l0.064-0.183c-0.162-0.057-0.323-0.115-0.483-0.177L9.637,115.442z M22.396,0.294  c-0.173-0.021-0.344-0.042-0.514-0.062l-0.022,0.192c0.169,0.02,0.34,0.04,0.512,0.062L22.396,0.294z M37.861,115.265l0.002,0.194  c0.171-0.001,0.344-0.003,0.518-0.006l-0.003-0.193C38.205,115.262,38.033,115.264,37.861,115.265z M39.077,3.784  c0.171,0.011,0.344,0.021,0.518,0.03l0.01-0.193c-0.174-0.009-0.345-0.019-0.515-0.03L39.077,3.784z M36.827,115.456  c0.172,0.002,0.345,0.004,0.518,0.005l0.001-0.194c-0.173-0.001-0.345-0.002-0.516-0.004L36.827,115.456z M38.043,3.705  c0.17,0.015,0.342,0.029,0.517,0.043l0.015-0.193c-0.174-0.013-0.345-0.027-0.514-0.042L38.043,3.705z M38.893,115.25l0.005,0.194  c0.172-0.005,0.344-0.009,0.518-0.015l-0.007-0.194C39.236,115.241,39.064,115.246,38.893,115.25z M37.012,3.6  c0.169,0.02,0.341,0.038,0.516,0.056l0.02-0.193c-0.174-0.018-0.345-0.036-0.513-0.055L37.012,3.6z M34.959,3.314  c0.165,0.027,0.336,0.054,0.512,0.081L35.5,3.203c-0.175-0.026-0.345-0.053-0.509-0.081L34.959,3.314z M35.984,3.469  c0.167,0.023,0.338,0.046,0.514,0.068l0.023-0.192c-0.174-0.022-0.344-0.044-0.511-0.068L35.984,3.469z M34.757,115.379  c0.171,0.011,0.343,0.021,0.517,0.029l0.009-0.194c-0.173-0.008-0.344-0.018-0.515-0.028L34.757,115.379z M35.792,115.43  c0.171,0.006,0.344,0.012,0.518,0.016l0.005-0.193c-0.173-0.005-0.345-0.01-0.516-0.016L35.792,115.43z M43.018,115.031l0.015,0.192  c0.172-0.013,0.344-0.027,0.516-0.042l-0.016-0.193C43.36,115.002,43.189,115.017,43.018,115.031z M34.144,115.31l0.046,0.188  c0.329-0.079,0.505-0.127,0.505-0.127l-0.05-0.188C34.644,115.184,34.469,115.231,34.144,115.31z M42.181,3.666l0.003,0.194  c0.172-0.003,0.345-0.007,0.519-0.013l-0.006-0.193C42.524,3.659,42.352,3.663,42.181,3.666z M39.925,115.217l0.008,0.193  c0.172-0.007,0.344-0.015,0.517-0.022l-0.009-0.193C40.268,115.203,40.096,115.209,39.925,115.217z M44.046,114.943l0.018,0.193  c0.172-0.016,0.344-0.031,0.516-0.048l-0.019-0.193C44.389,114.912,44.218,114.927,44.046,114.943z M43.211,3.633l0.009,0.194  c0.172-0.008,0.345-0.018,0.518-0.028l-0.012-0.193C43.553,3.616,43.382,3.625,43.211,3.633z M40.957,115.168l0.011,0.193  c0.171-0.009,0.344-0.019,0.517-0.029l-0.012-0.193C41.299,115.149,41.127,115.159,40.957,115.168z M40.112,3.837  c0.171,0.006,0.344,0.012,0.519,0.016l0.005-0.194c-0.174-0.004-0.346-0.01-0.516-0.016L40.112,3.837z M41.563,3.671  c-0.139,0-0.275-0.001-0.413-0.002l-0.002,0.194c0.138,0.001,0.276,0.002,0.415,0.002h0.104l-0.001-0.194H41.563z M41.988,115.106  L42,115.299c0.172-0.012,0.344-0.023,0.517-0.036l-0.015-0.193C42.331,115.083,42.159,115.094,41.988,115.106z M32.126,115.752  l0.038,0.19c0.177-0.035,0.347-0.07,0.508-0.104l-0.04-0.19C32.472,115.683,32.303,115.717,32.126,115.752z M29.49,1.748  c-0.167-0.045-0.334-0.09-0.5-0.134l-0.05,0.188c0.165,0.043,0.331,0.088,0.498,0.134L29.49,1.748z M27.028,116.565l0.023,0.192  c0.173-0.021,0.345-0.042,0.514-0.063l-0.024-0.192C27.372,116.523,27.201,116.544,27.028,116.565z M27.484,1.236  c-0.169-0.04-0.337-0.08-0.504-0.117l-0.043,0.189c0.167,0.038,0.334,0.077,0.502,0.117L27.484,1.236z M28.489,1.483  c-0.168-0.043-0.336-0.085-0.502-0.126l-0.046,0.188c0.166,0.041,0.333,0.083,0.5,0.126L28.489,1.483z M28.053,116.435l0.026,0.192  c0.173-0.024,0.344-0.048,0.513-0.072l-0.027-0.191C28.396,116.388,28.226,116.412,28.053,116.435z M26.002,116.678l0.02,0.192  c0.173-0.018,0.345-0.036,0.515-0.055l-0.021-0.192C26.346,116.642,26.175,116.661,26.002,116.678z M34.483,3.036  c-0.178-0.032-0.347-0.063-0.507-0.094l-0.037,0.19c0.161,0.031,0.332,0.062,0.51,0.094L34.483,3.036z M23.945,116.851l0.013,0.193  c0.173-0.012,0.345-0.023,0.516-0.036l-0.014-0.193C24.289,116.828,24.118,116.839,23.945,116.851z M25.461,0.795  c-0.17-0.034-0.34-0.066-0.508-0.098l-0.036,0.19c0.167,0.031,0.336,0.064,0.506,0.097L25.461,0.795z M24.974,116.774l0.016,0.192  c0.173-0.015,0.346-0.029,0.516-0.045l-0.018-0.193C25.318,116.744,25.147,116.759,24.974,116.774z M26.475,1.006  c-0.17-0.037-0.339-0.073-0.507-0.108l-0.039,0.19c0.167,0.035,0.335,0.07,0.504,0.107L26.475,1.006z M33.47,2.841  c-0.185-0.039-0.353-0.075-0.504-0.109l-0.042,0.189c0.152,0.034,0.321,0.071,0.507,0.109L33.47,2.841z M32.464,2.614  c-0.156-0.039-0.261-0.067-0.321-0.084l-0.171-0.054l-0.058,0.185l0.1,0.031c0.061,0.025,0.177,0.054,0.403,0.11L32.464,2.614z   M24.443,0.605c-0.171-0.03-0.342-0.059-0.511-0.087L23.901,0.71c0.168,0.028,0.337,0.056,0.508,0.086L24.443,0.605z   M33.137,115.542l0.042,0.189c0.184-0.041,0.353-0.079,0.506-0.114l-0.043-0.188C33.489,115.463,33.321,115.501,33.137,115.542z   M31.112,115.948l0.035,0.19c0.175-0.032,0.345-0.063,0.509-0.096l-0.037-0.19C31.456,115.883,31.287,115.916,31.112,115.948z   M30.095,116.126l0.032,0.19c0.174-0.028,0.345-0.058,0.511-0.087l-0.034-0.19C30.438,116.068,30.269,116.097,30.095,116.126z   M30.486,2.029c-0.167-0.048-0.333-0.096-0.498-0.142l-0.052,0.187c0.165,0.046,0.33,0.093,0.496,0.142L30.486,2.029z   M29.075,116.289l0.029,0.191c0.173-0.026,0.344-0.053,0.512-0.079l-0.031-0.191C29.418,116.236,29.248,116.262,29.075,116.289z   M31.478,2.324c-0.166-0.051-0.332-0.1-0.496-0.149L30.927,2.36c0.164,0.049,0.329,0.098,0.494,0.149L31.478,2.324z" style="fill: rgb(89, 90, 90);"></path>
</svg>