<?xml version="1.0" encoding="utf-8"?>
<!DOCTYPE svg PUBLIC "-//W3C//DTD SVG 1.1//EN" "http://www.w3.org/Graphics/SVG/1.1/DTD/svg11.dtd">
<svg 
    xmlns="http://www.w3.org/2000/svg" 
    xmlns:xlink="http://www.w3.org/1999/xlink" 
    version="1.1" id="6870607348" x="0px" y="0px" 
    width="100%" height="100%" 
    viewBox="0 0 146.812 146.812" 
    enable-background="new 0 0 146.812 146.812" 
    xml:space="preserve" preserveAspectRatio="none" 
    class="element svg-element"
>
<g>
    <path fill="#F1CB41" d="M129.698,2.688l-56.292,70.72L36.61,44.12L71.726,0L129.698,2.688z M17.114,144.128l56.288-70.722   l36.797,29.289l-35.117,44.117L17.114,144.128z" style="fill: rgb(241, 203, 65);"></path>
    <path fill="#67B4C9" d="M2.688,17.114l70.718,56.292l-29.288,36.797L0,75.086L2.688,17.114z M144.124,129.698L73.406,73.41   l29.289-36.797l44.117,35.117L144.124,129.698z" style="fill: rgb(103, 180, 201);"></path>
    <path fill="#53DB73" d="M73.406,73.408L36.61,44.12L71.726,0L73.406,73.408z M73.402,73.406l36.797,29.289l-35.117,44.117   L73.402,73.406z" style="fill: rgb(83, 219, 115);"></path>
    <path fill="#EF732E" d="M73.406,73.406l-29.288,36.797L0,75.086L73.406,73.406z M73.406,73.41l29.289-36.797l44.117,35.117   L73.406,73.41z" style="fill: rgb(239, 115, 46);"></path>
    <path fill="#834113" d="M73.494,63.388c5.681,0,10.287,4.606,10.287,10.287s-4.606,10.287-10.287,10.287   s-10.287-4.606-10.287-10.287S67.813,63.388,73.494,63.388z" style="fill: rgb(131, 65, 19);"></path>
</g>
</svg>